<svg width="375" height="375" viewBox="0 0 375 375" fill="none" xmlns="http://www.w3.org/2000/svg">
<mask id="mask0_0_88" style="mask-type:luminance" maskUnits="userSpaceOnUse" x="-40" y="0" width="500" height="375">
<rect x="-40" width="500" height="375" fill="white"/>
</mask>
<g mask="url(#mask0_0_88)">
<path d="M273.585 281.677L275.536 281.414C275.536 281.414 280.187 269.286 277.636 262.001L272.835 265.231L273.385 276.893" fill="#1A80FD"/>
<path d="M273.585 281.677L275.536 281.414C275.536 281.414 280.187 269.286 277.636 262.001L272.835 265.231L273.385 276.893" stroke="black" stroke-width="0.625" stroke-linecap="round" stroke-linejoin="round"/>
<path d="M185.404 339.703L183.703 343.407L184.253 347.556L275.536 281.414V277.922L270.734 273.566L185.404 339.703Z" fill="#E43334" stroke="black" stroke-width="0.625" stroke-linecap="round" stroke-linejoin="round"/>
<path d="M22.2461 252.289L16.244 252.689V256.895L184.253 347.556L183.703 343.407V334.596" fill="#E43334"/>
<path d="M22.2461 252.289L16.244 252.689V256.895L184.253 347.556L183.703 343.407V334.596" stroke="black" stroke-width="0.625" stroke-linecap="round" stroke-linejoin="round"/>
<path d="M16.244 252.689C16.244 252.689 63.0606 199.82 126.083 206.429L275.536 277.922L183.703 343.407L16.244 252.689Z" fill="#E43334"/>
<mask id="mask1_0_88" style="mask-type:luminance" maskUnits="userSpaceOnUse" x="16" y="205" width="260" height="139">
<path fill-rule="evenodd" clip-rule="evenodd" d="M16.244 252.689C16.244 252.689 63.0606 199.82 126.083 206.429L275.536 277.922L183.703 343.407L16.244 252.689Z" fill="white"/>
</mask>
<g mask="url(#mask1_0_88)">
<path d="M41.4483 249.07C29.8488 247.482 186.147 332.028 182.248 337.234C178.349 342.441 214.86 319.935 201.105 310.561C187.35 301.188 145.89 287.366 145.89 287.366" fill="#E43334"/>
<path d="M41.4483 249.07C29.8488 247.482 186.147 332.028 182.248 337.234C178.349 342.441 214.86 319.935 201.105 310.561C187.35 301.188 145.89 287.366 145.89 287.366" stroke="black" stroke-width="0.625" stroke-linecap="round" stroke-linejoin="round"/>
</g>
<path fill-rule="evenodd" clip-rule="evenodd" d="M16.244 252.689C16.244 252.689 63.0606 199.82 126.083 206.429L275.536 277.922L183.703 343.407L16.244 252.689Z" stroke="black" stroke-width="0.625" stroke-linecap="round" stroke-linejoin="round"/>
<path d="M250.327 274.632L275.536 277.922L277.636 262.001L233.221 243.077L250.327 274.632Z" fill="#1A80FD" stroke="black" stroke-width="0.625" stroke-linecap="round" stroke-linejoin="round"/>
<path d="M275.618 265.005L278.401 263.804C278.401 263.804 324.753 212.737 403.181 218.445L403.756 216.192L359.565 211.235L286.039 225.053L271.334 256.294L275.618 265.005Z" fill="#E43334" stroke="black" stroke-width="0.625" stroke-linecap="round" stroke-linejoin="round"/>
<path d="M268.333 261.701L277.636 262.001C277.636 262.001 323.027 209.583 403.756 216.192L331.355 183.299L233.221 213.438L214.314 237.87L268.333 261.701Z" fill="#E43334" stroke="black" stroke-width="0.625" stroke-linecap="round" stroke-linejoin="round"/>
<path d="M45.4543 222.65L31.8495 228.257C31.8495 228.257 33.8502 240.674 29.8488 247.482L184.473 333.015L183.479 306.849L45.4543 222.65Z" fill="white"/>
<mask id="mask2_0_88" style="mask-type:luminance" maskUnits="userSpaceOnUse" x="29" y="222" width="156" height="112">
<path fill-rule="evenodd" clip-rule="evenodd" d="M45.4543 222.65L31.8495 228.257C31.8495 228.257 33.8502 240.674 29.8488 247.482L184.473 333.015L183.479 306.849L45.4543 222.65Z" fill="white"/>
</mask>
<g mask="url(#mask2_0_88)">
<path d="M22.1415 231.414L84.8636 265.005L21.2411 234.05L22.1415 231.414Z" fill="#D6DCF2"/>
</g>
<path fill-rule="evenodd" clip-rule="evenodd" d="M45.4543 222.65L31.8495 228.257C31.8495 228.257 33.8502 240.674 29.8488 247.482L184.473 333.015L183.479 306.849L45.4543 222.65Z" stroke="black" stroke-width="0.625" stroke-linecap="round" stroke-linejoin="round"/>
<path d="M367.215 198.093L389.771 212.873C389.771 212.873 325.301 205.857 278.401 263.804L272.089 276.273L254.328 257.911L255.428 243.301L285.939 205.857L319.951 201.222" fill="white"/>
<path d="M367.215 198.093L389.771 212.873C389.771 212.873 325.301 205.857 278.401 263.804L272.089 276.273L254.328 257.911L255.428 243.301L285.939 205.857L319.951 201.222" stroke="black" stroke-width="0.625" stroke-linecap="round" stroke-linejoin="round"/>
<path d="M189.905 279.524L182.873 307.754L184.473 333.015L272.089 276.273L267.428 265.005L205.611 262.001L189.905 279.524Z" fill="white" stroke="black" stroke-width="0.625" stroke-linecap="round" stroke-linejoin="round"/>
<path d="M141.488 193.813C141.488 193.813 80.2666 163.373 31.8495 228.257L183.479 306.849C183.479 306.849 215.41 265.506 267.428 265.005L141.488 193.813Z" fill="white" stroke="black" stroke-width="0.625" stroke-linecap="round" stroke-linejoin="round"/>
<path d="M231.52 119.316C217.915 138.14 153.893 136.538 141.488 193.813L267.428 265.005C267.428 265.005 325.039 195.57 368.254 198.774L231.52 119.316Z" fill="white"/>
<mask id="mask3_0_88" style="mask-type:luminance" maskUnits="userSpaceOnUse" x="141" y="119" width="228" height="147">
<path fill-rule="evenodd" clip-rule="evenodd" d="M231.52 119.316C217.915 138.14 153.893 136.538 141.488 193.813L267.428 265.005C267.428 265.005 325.039 195.57 368.254 198.774L231.52 119.316Z" fill="white"/>
</mask>
<g mask="url(#mask3_0_88)">
<path d="M150.091 166.763C141.488 193.813 240.319 231.957 237.918 248.323C235.517 264.69 119.035 205.939 119.035 205.939V145.134" fill="#D6DCF2"/>
</g>
<path fill-rule="evenodd" clip-rule="evenodd" d="M231.52 119.316C217.915 138.14 153.893 136.538 141.488 193.813L267.428 265.005C267.428 265.005 325.039 195.57 368.254 198.774V198.774L231.52 119.316Z" stroke="black" stroke-width="0.625" stroke-linecap="round" stroke-linejoin="round"/>
<path d="M31.8495 199.806C31.8495 199.806 81.0715 166.192 141.488 193.813L267.428 265.005C267.428 265.005 203.906 246.266 173.495 279.91L31.8495 199.806Z" fill="white"/>
<mask id="mask4_0_88" style="mask-type:luminance" maskUnits="userSpaceOnUse" x="31" y="182" width="237" height="98">
<path fill-rule="evenodd" clip-rule="evenodd" d="M31.8495 199.806C31.8495 199.806 81.0715 166.192 141.488 193.813L267.428 265.005C267.428 265.005 203.906 246.266 173.495 279.91L31.8495 199.806Z" fill="white"/>
</mask>
<g mask="url(#mask4_0_88)">
<path d="M58.7974 200.372L109.249 228.629C109.249 228.629 128.779 214.818 168.429 214.412L137.22 195.875C137.22 195.875 99.6425 181.566 58.7974 200.372Z" fill="#D6DCF2"/>
</g>
<path fill-rule="evenodd" clip-rule="evenodd" d="M31.8495 199.806C31.8495 199.806 81.0715 166.192 141.488 193.813L267.428 265.005C267.428 265.005 203.906 246.266 173.495 279.91L31.8495 199.806Z" stroke="black" stroke-width="0.625" stroke-linecap="round" stroke-linejoin="round"/>
<path d="M118.837 237.891L122.24 239.717C122.24 239.717 148.923 220.208 172.859 219.965L169.85 217.922C169.85 217.922 140.41 221.42 118.837 237.891Z" fill="#D6DCF2"/>
<path d="M131.769 245.693L135.172 247.52C135.172 247.52 161.855 228.011 185.791 227.768L182.782 225.725C182.782 225.725 153.341 229.223 131.769 245.693Z" fill="#D6DCF2"/>
<path d="M143.903 253.313L147.306 255.14C147.306 255.14 173.989 235.631 197.925 235.388L194.916 233.345C194.916 233.345 165.475 236.842 143.903 253.313Z" fill="#D6DCF2"/>
<path d="M119.467 212.792L115.844 213.698" stroke="black" stroke-width="0.625"/>
<path d="M253.349 191.798L257.039 187.321" stroke="black" stroke-width="0.625"/>
<path d="M228.857 288.064C227.48 289.225 225.84 290.031 224.081 290.412" stroke="black" stroke-width="0.625"/>
<path d="M158.662 55.1795C158.528 51.4587 157.61 47.8081 155.968 44.4661C155.345 43.1975 154.62 41.9815 153.8 40.8299C147.684 32.2214 136.716 27.789 125.865 30.5225C115.014 33.2561 107.45 42.3572 106.133 52.8384C105.956 54.2411 105.893 55.6558 105.943 57.0686C106.078 60.7895 106.996 64.4401 108.637 67.7821C115.075 67.575 123.721 66.4506 134.233 63.8022C144.746 61.1539 152.894 58.0475 158.662 55.1795Z" fill="#1B80FD"/>
<mask id="mask5_0_88" style="mask-type:luminance" maskUnits="userSpaceOnUse" x="105" y="29" width="54" height="39">
<path fill-rule="evenodd" clip-rule="evenodd" d="M158.662 55.1795C158.528 51.4587 157.61 47.8081 155.968 44.4661C155.345 43.1975 154.62 41.9815 153.8 40.8299C147.684 32.2214 136.716 27.789 125.865 30.5225C115.014 33.2561 107.45 42.3572 106.133 52.8384C105.956 54.2411 105.893 55.6558 105.943 57.0686C106.078 60.7895 106.996 64.4401 108.637 67.7821C115.075 67.575 123.721 66.4506 134.233 63.8022C144.746 61.1539 152.894 58.0475 158.662 55.1795Z" fill="white"/>
</mask>
<g mask="url(#mask5_0_88)">
<path d="M115.325 26.1703C171.461 29.4972 159.935 60.3156 119.907 66.7076C79.8795 73.0997 172.808 62.4892 172.808 62.4892L171.291 31.9006L128.723 23.6255L117.36 29.371" fill="#1D62FC"/>
</g>
<path fill-rule="evenodd" clip-rule="evenodd" d="M158.662 55.1795C158.528 51.4587 157.61 47.8081 155.968 44.4661C155.345 43.1975 154.62 41.9815 153.8 40.8299C147.684 32.2214 136.716 27.789 125.865 30.5225C115.014 33.2561 107.45 42.3572 106.133 52.8384C105.956 54.2411 105.893 55.6558 105.943 57.0686C106.078 60.7895 106.996 64.4401 108.637 67.7821C115.075 67.575 123.721 66.4506 134.233 63.8022C144.746 61.1539 152.894 58.0475 158.662 55.1795Z" stroke="black" stroke-width="0.625" stroke-linecap="round" stroke-linejoin="round"/>
<path d="M110.805 71.4184C116.922 80.0271 127.889 84.4595 138.74 81.7258C149.591 78.9921 157.156 69.891 158.472 59.41C151.976 62.4218 143.86 65.2139 135.141 67.4106C126.421 69.6072 117.952 70.9935 110.805 71.4184Z" fill="#1B80FD"/>
<path fill-rule="evenodd" clip-rule="evenodd" d="M110.805 71.4184C116.922 80.0271 127.889 84.4595 138.74 81.7258C149.591 78.9921 157.156 69.891 158.472 59.41C151.976 62.4218 143.86 65.2139 135.141 67.4106C126.421 69.6072 117.952 70.9935 110.805 71.4184Z" stroke="black" stroke-width="0.625" stroke-linecap="round" stroke-linejoin="round"/>
<path d="M172.674 45.9535C171.783 42.4088 166.805 40.6367 157.879 40.6883C156.578 40.6958 155.213 40.7459 153.8 40.8298C154.62 41.9814 155.345 43.1975 155.968 44.4661C164.099 44.2046 168.704 45.4072 169.069 46.8617C169.435 48.3162 165.947 51.5574 158.662 55.1795C152.894 58.0475 144.746 61.1538 134.233 63.8022C123.721 66.4505 115.075 67.575 108.637 67.7821C100.507 68.0437 95.9021 66.841 95.5362 65.3867C95.1707 63.9321 98.6581 60.6908 105.943 57.0687C105.893 55.6558 105.956 54.2411 106.133 52.8385C104.85 53.4337 103.623 54.0366 102.474 54.6463C94.5869 58.8304 91.0401 62.75 91.9315 66.2947C92.8228 69.8396 97.8008 71.6115 106.727 71.5599C108.027 71.5525 109.393 71.5025 110.805 71.4184C117.952 70.9935 126.421 69.6072 135.141 67.4106C143.86 65.2139 151.976 62.4218 158.472 59.41C159.756 58.8146 160.983 58.2116 162.132 57.6021C170.019 53.4178 173.565 49.4983 172.674 45.9535Z" fill="#FACCC4"/>
<mask id="mask6_0_88" style="mask-type:luminance" maskUnits="userSpaceOnUse" x="91" y="40" width="82" height="32">
<path fill-rule="evenodd" clip-rule="evenodd" d="M172.674 45.9535C171.783 42.4088 166.805 40.6367 157.879 40.6883C156.578 40.6958 155.213 40.7459 153.8 40.8298C154.62 41.9814 155.345 43.1975 155.968 44.4661C164.099 44.2046 168.704 45.4072 169.069 46.8617C169.435 48.3162 165.947 51.5574 158.662 55.1795C152.894 58.0475 144.746 61.1538 134.233 63.8022C123.721 66.4505 115.075 67.575 108.637 67.7821C100.507 68.0437 95.9021 66.841 95.5362 65.3867C95.1707 63.9321 98.6581 60.6908 105.943 57.0687C105.893 55.6558 105.956 54.2411 106.133 52.8385C104.85 53.4337 103.623 54.0366 102.474 54.6463C94.5869 58.8304 91.0401 62.75 91.9315 66.2947C92.8228 69.8396 97.8008 71.6115 106.727 71.5599C108.027 71.5525 109.393 71.5025 110.805 71.4184C117.952 70.9935 126.421 69.6072 135.141 67.4106C143.86 65.2139 151.976 62.4218 158.472 59.41C159.756 58.8146 160.983 58.2116 162.132 57.6021C170.019 53.4178 173.565 49.4983 172.674 45.9535Z" fill="white"/>
</mask>
<g mask="url(#mask6_0_88)">
<path d="M85.8154 56.1241C110.576 52.2198 108.202 63.352 108.202 63.352L114.307 49.5269L104.471 47.4871" fill="#ED707B"/>
<path d="M147.039 36.9479C159.419 38.6394 160.776 47.4871 160.776 47.4871L150.261 49.5269L146.869 46.2784" fill="#ED707B"/>
</g>
<path fill-rule="evenodd" clip-rule="evenodd" d="M172.674 45.9535C171.783 42.4088 166.805 40.6367 157.879 40.6883C156.578 40.6958 155.213 40.7459 153.8 40.8298C154.62 41.9814 155.345 43.1975 155.968 44.4661C164.099 44.2046 168.704 45.4072 169.069 46.8617C169.435 48.3162 165.947 51.5574 158.662 55.1795C152.894 58.0475 144.746 61.1538 134.233 63.8022C123.721 66.4505 115.075 67.575 108.637 67.7821C100.507 68.0437 95.9021 66.841 95.5362 65.3867C95.1707 63.9321 98.6581 60.6908 105.943 57.0687C105.893 55.6558 105.956 54.2411 106.133 52.8385C104.85 53.4337 103.623 54.0366 102.474 54.6463C94.5869 58.8304 91.0401 62.75 91.9315 66.2947C92.8228 69.8396 97.8008 71.6115 106.727 71.5599C108.027 71.5525 109.393 71.5025 110.805 71.4184C117.952 70.9935 126.421 69.6072 135.141 67.4106C143.86 65.2139 151.976 62.4218 158.472 59.41C159.756 58.8146 160.983 58.2116 162.132 57.6021C170.019 53.4178 173.565 49.4983 172.674 45.9535Z" stroke="black" stroke-width="0.625" stroke-linecap="round" stroke-linejoin="round"/>
<path d="M129.186 42.5406C128.98 44.0511 128.436 45.4955 127.594 46.7663" stroke="black" stroke-width="0.625"/>
<path d="M144.583 70.7322L141.671 72.727" stroke="black" stroke-width="0.625"/>
<path d="M275.549 189.574H300.146V206.675C300.146 212.898 295.101 217.943 288.878 217.943H286.816C280.594 217.943 275.549 212.898 275.549 206.675V189.574H275.549Z" fill="#E43334" stroke="black" stroke-width="0.625" stroke-linecap="round" stroke-linejoin="round"/>
<path d="M269.875 183.866H305.82V204.173C305.82 208.625 302.211 212.234 297.759 212.234H277.936C275.798 212.234 273.747 211.385 272.236 209.873C270.724 208.362 269.875 206.311 269.875 204.173V183.866H269.875Z" fill="#E43334"/>
<mask id="mask7_0_88" style="mask-type:luminance" maskUnits="userSpaceOnUse" x="269" y="183" width="37" height="30">
<path fill-rule="evenodd" clip-rule="evenodd" d="M269.875 183.866H305.82V204.173C305.82 208.625 302.211 212.234 297.759 212.234H277.936C275.798 212.234 273.747 211.385 272.236 209.873C270.724 208.362 269.875 206.311 269.875 204.173V183.866H269.875Z" fill="white"/>
</mask>
<g mask="url(#mask7_0_88)">
<path d="M273.171 213.561C263.746 185.259 289.382 190.682 310.871 189.574C332.36 188.467 297.676 181.485 297.676 181.485L269.875 183.866L266.95 196.391L268.508 211.297" fill="#C11F27"/>
</g>
<path fill-rule="evenodd" clip-rule="evenodd" d="M269.875 183.866H305.82V204.173C305.82 208.625 302.211 212.234 297.759 212.234H277.936C275.798 212.234 273.747 211.385 272.236 209.873C270.724 208.362 269.875 206.311 269.875 204.173V183.866H269.875Z" stroke="black" stroke-width="0.625" stroke-linecap="round" stroke-linejoin="round"/>
<path d="M323.101 136.297C323.101 117.002 307.631 101.325 288.428 101.014C275.691 100.821 263.837 107.505 257.412 118.506C250.987 129.506 250.987 143.114 257.412 154.114C263.209 164.011 266.418 175.212 266.418 186.685C266.418 187.325 266.937 187.844 267.577 187.844H308.118C308.425 187.844 308.72 187.722 308.937 187.505C309.155 187.287 309.277 186.992 309.276 186.685C309.276 175.349 312.238 164.174 318.077 154.461C321.374 148.977 323.112 142.696 323.101 136.297Z" fill="#FDD504"/>
<mask id="mask8_0_88" style="mask-type:luminance" maskUnits="userSpaceOnUse" x="252" y="101" width="72" height="87">
<path fill-rule="evenodd" clip-rule="evenodd" d="M323.101 136.297C323.101 117.002 307.631 101.325 288.428 101.014C275.691 100.821 263.837 107.506 257.412 118.506C250.987 129.506 250.987 143.114 257.412 154.114C263.209 164.011 266.418 175.212 266.418 186.685C266.418 187.325 266.937 187.844 267.577 187.844H308.118C308.425 187.844 308.72 187.722 308.937 187.505C309.155 187.287 309.276 186.992 309.276 186.685C309.276 175.349 312.238 164.174 318.077 154.461C321.374 148.977 323.112 142.696 323.101 136.297Z" fill="white"/>
</mask>
<g mask="url(#mask8_0_88)">
<path d="M264.123 106.39C226.799 147.145 286.743 191.232 317.657 187.491C348.572 183.749 273.171 213.561 273.171 213.561L241.17 198.05L229.061 140.322" fill="#FCB006"/>
</g>
<path fill-rule="evenodd" clip-rule="evenodd" d="M323.101 136.297C323.101 117.002 307.631 101.325 288.428 101.014C275.691 100.821 263.837 107.505 257.412 118.506C250.987 129.506 250.987 143.114 257.412 154.114C263.209 164.011 266.418 175.212 266.418 186.685V186.685C266.418 187.325 266.937 187.844 267.577 187.844H308.118C308.425 187.844 308.72 187.722 308.937 187.505C309.155 187.287 309.277 186.992 309.276 186.685V186.685C309.276 175.349 312.238 164.174 318.077 154.461C321.374 148.977 323.112 142.696 323.101 136.297V136.297Z" stroke="black" stroke-width="0.625" stroke-linecap="round" stroke-linejoin="round"/>
<rect x="268.508" y="192.515" width="38.6787" height="5.5353" rx="2.53323" fill="white" stroke="black" stroke-width="0.625" stroke-linecap="round" stroke-linejoin="round"/>
<rect x="268.508" y="200.991" width="38.6787" height="5.5353" rx="2.53323" fill="white" stroke="black" stroke-width="0.625" stroke-linecap="round" stroke-linejoin="round"/>
<rect x="283.922" y="54.4406" width="7.85071" height="32.7993" rx="3.59629" fill="#FCB006" stroke="black" stroke-width="0.625" stroke-linecap="round" stroke-linejoin="round"/>
<rect x="208.402" y="137.891" width="7.85816" height="32.7682" rx="3.59629" transform="rotate(-90 208.402 137.891)" fill="#FCB006" stroke="black" stroke-width="0.625" stroke-linecap="round" stroke-linejoin="round"/>
<rect x="334.525" y="137.891" width="7.85816" height="32.7682" rx="3.59629" transform="rotate(-90 334.525 137.891)" fill="#FCB006" stroke="black" stroke-width="0.625" stroke-linecap="round" stroke-linejoin="round"/>
<rect x="228.884" y="80.5209" width="7.85444" height="32.7837" rx="3.59629" transform="rotate(-45.0272 228.884 80.5209)" fill="#FCB006" stroke="black" stroke-width="0.625" stroke-linecap="round" stroke-linejoin="round"/>
<rect x="323.618" y="103.692" width="7.85444" height="32.7837" rx="3.59629" transform="rotate(-134.973 323.618 103.692)" fill="#FCB006" stroke="black" stroke-width="0.625" stroke-linecap="round" stroke-linejoin="round"/>
<path d="M308.388 135.379C304.694 139.488 300.63 143.25 296.248 146.617" stroke="black" stroke-width="0.625"/>
<rect x="221.382" y="246.382" width="13.2452" height="29.0105" transform="rotate(-51.1563 221.382 246.382)" fill="#1AB995"/>
<mask id="mask9_0_88" style="mask-type:luminance" maskUnits="userSpaceOnUse" x="221" y="236" width="32" height="29">
<rect x="221.382" y="246.382" width="13.2452" height="29.0105" transform="rotate(-51.1563 221.382 246.382)" fill="white"/>
</mask>
<g mask="url(#mask9_0_88)">
<path d="M234.831 236.716C240.532 245.783 227.341 249.32 232.714 254.044C238.088 258.768 245.745 251.256 248.493 245.847C251.24 240.437 254.894 256.384 254.894 256.384L235.181 270.019L221.537 252.019L228.053 244.65" fill="#0FA379"/>
</g>
<rect x="221.382" y="246.382" width="13.2452" height="29.0105" transform="rotate(-51.1563 221.382 246.382)" stroke="black" stroke-width="0.625" stroke-linecap="round" stroke-linejoin="round"/>
<path d="M278.146 283.653C276.185 286.089 273.324 287.631 270.211 287.929C267.098 288.227 263.997 287.256 261.609 285.236L234.94 262.676L248.493 245.846L276.18 267.142C278.66 269.05 280.266 271.877 280.636 274.984C281.006 278.091 280.108 281.216 278.146 283.653Z" fill="#FCB006"/>
<mask id="mask10_0_88" style="mask-type:luminance" maskUnits="userSpaceOnUse" x="234" y="245" width="47" height="43">
<path fill-rule="evenodd" clip-rule="evenodd" d="M278.146 283.653C276.185 286.089 273.324 287.631 270.211 287.929C267.098 288.227 263.997 287.256 261.609 285.236L234.94 262.676L248.493 245.846L276.18 267.142C278.66 269.05 280.266 271.877 280.636 274.984C281.006 278.091 280.108 281.216 278.146 283.653Z" fill="white"/>
</mask>
<g mask="url(#mask10_0_88)">
<path d="M244.055 243.575C286.94 276.064 269.755 281.986 264.377 290.856C258.998 299.725 287.324 291.058 287.324 291.058L303.828 274.901L272.819 245.451L252.145 244.469" fill="#FDD504"/>
</g>
<path fill-rule="evenodd" clip-rule="evenodd" d="M278.146 283.653V283.653C276.185 286.089 273.324 287.631 270.211 287.929C267.098 288.227 263.997 287.256 261.609 285.236L234.94 262.676L248.493 245.846L276.18 267.142C278.66 269.05 280.266 271.877 280.636 274.984C281.006 278.091 280.108 281.216 278.146 283.653Z" stroke="black" stroke-width="0.625" stroke-linecap="round" stroke-linejoin="round"/>
<path fill-rule="evenodd" clip-rule="evenodd" d="M181.838 253.005C166.214 240.4 163.757 217.502 176.351 201.863C188.945 186.223 211.82 183.764 227.445 196.37C243.07 208.976 245.527 231.874 232.933 247.513C220.338 263.153 197.463 265.612 181.838 253.005ZM187.926 245.445C199.379 254.685 216.147 252.883 225.379 241.419C234.61 229.955 232.81 213.171 221.357 203.931C209.904 194.691 193.136 196.493 183.904 207.957C174.673 219.421 176.474 236.205 187.926 245.445Z" fill="#1AB995"/>
<path d="M176.351 201.863L176.107 201.667L176.107 201.667L176.351 201.863ZM181.838 253.005L181.642 253.249L181.838 253.005ZM225.379 241.419L225.622 241.615L225.379 241.419ZM176.107 201.667C163.405 217.44 165.883 240.534 181.642 253.249L182.034 252.762C166.544 240.265 164.108 217.564 176.594 202.059L176.107 201.667ZM181.642 253.249C197.401 265.963 220.474 263.483 233.176 247.709L232.689 247.317C220.203 262.822 197.524 265.26 182.034 252.762L181.642 253.249ZM233.176 247.709C245.878 231.935 243.4 208.841 227.641 196.127L227.249 196.613C242.739 209.111 245.175 231.812 232.689 247.317L233.176 247.709ZM227.641 196.127C211.882 183.412 188.81 185.893 176.107 201.667L176.594 202.059C189.08 186.554 211.759 184.116 227.249 196.613L227.641 196.127ZM225.136 241.223C216.012 252.552 199.441 254.333 188.123 245.202L187.73 245.688C199.318 255.037 216.282 253.213 225.622 241.615L225.136 241.223ZM188.123 245.202C176.804 236.07 175.024 219.482 184.148 208.153L183.661 207.761C174.321 219.359 176.143 236.339 187.73 245.688L188.123 245.202ZM184.148 208.153C193.271 196.823 209.842 195.042 221.161 204.174L221.553 203.688C209.966 194.339 193.001 196.163 183.661 207.761L184.148 208.153ZM221.161 204.174C232.479 213.306 234.259 229.893 225.136 241.223L225.622 241.615C234.962 230.017 233.14 213.036 221.553 203.688L221.161 204.174Z" fill="black"/>
<path d="M173.604 219.414C173.919 221.677 173.846 223.978 173.39 226.217" stroke="black" stroke-width="0.625"/>
<path d="M261.434 265.792L261.992 267.991" stroke="black" stroke-width="0.625"/>
<ellipse cx="45.4342" cy="107.407" rx="21.8519" ry="21.8727" fill="#FDD504" stroke="black" stroke-width="0.625" stroke-linecap="round" stroke-linejoin="round"/>
<ellipse cx="326.71" cy="283.512" rx="9.93614" ry="9.94556" fill="#1AB995" stroke="black" stroke-width="0.625" stroke-linecap="round" stroke-linejoin="round"/>
<ellipse cx="235.559" cy="44.4949" rx="17.0347" ry="17.0509" fill="#E43334" stroke="black" stroke-width="0.625" stroke-linecap="round" stroke-linejoin="round"/>
<path d="M208.166 66.7368C206.891 65.7806 205.291 65.2625 203.647 65.165L189.452 64.3244C183.436 63.9681 178.917 69.2662 180.755 74.5191L185.298 87.4999L185.336 88.3097L185.495 88.0608L186.813 91.8293C186.813 91.8293 195.954 95.584 207.426 83.2101C215.552 74.4454 211.324 69.1059 208.166 66.7368Z" fill="#485065" stroke="black" stroke-width="0.625" stroke-linecap="round" stroke-linejoin="round"/>
<path d="M188.125 125.754L209.38 151.544C211.701 154.359 215.235 155.036 217.943 153.184L241.744 136.9C241.744 136.9 250.183 135 247.767 130.704C247.767 130.704 249.608 127.467 245.77 125.896C245.77 125.896 245.952 120.865 241.745 122.36C241.745 122.36 240.513 120.63 238.877 123.475C238.215 124.669 237.817 125.992 237.709 127.353L237.625 128.262L217.657 139.221L203.964 119.626L188.125 125.754Z" fill="#F9C1BB"/>
<mask id="mask11_0_88" style="mask-type:luminance" maskUnits="userSpaceOnUse" x="188" y="119" width="61" height="36">
<path fill-rule="evenodd" clip-rule="evenodd" d="M188.125 125.754L209.38 151.544C211.701 154.359 215.235 155.036 217.943 153.184L241.744 136.9C241.744 136.9 250.183 135 247.767 130.704C247.767 130.704 249.608 127.467 245.77 125.896C245.77 125.896 245.952 120.865 241.745 122.36C241.745 122.36 240.513 120.63 238.877 123.475C238.215 124.669 237.817 125.992 237.709 127.353L237.625 128.262L217.657 139.221L203.964 119.626L188.125 125.754Z" fill="white"/>
</mask>
<g mask="url(#mask11_0_88)">
<path d="M211.01 129.481C218.249 144.672 195.542 151.533 196.586 158.124C197.63 164.716 192.118 144.807 192.118 144.807L199.066 132.162" fill="#ED707B"/>
</g>
<path fill-rule="evenodd" clip-rule="evenodd" d="M188.125 125.754L209.38 151.544C211.701 154.359 215.235 155.036 217.943 153.184L241.744 136.9C241.744 136.9 250.183 135 247.767 130.704C247.767 130.704 249.608 127.467 245.77 125.896C245.77 125.896 245.952 120.865 241.745 122.36C241.745 122.36 240.513 120.63 238.877 123.475C238.215 124.669 237.817 125.992 237.709 127.353L237.625 128.262L217.657 139.221L203.964 119.626L188.125 125.754Z" stroke="black" stroke-width="0.625" stroke-linecap="round" stroke-linejoin="round"/>
<path d="M198.614 147.095C198.614 147.095 214.365 139.584 211.782 130.813L199.667 111.395L178.679 119.9L198.614 147.095Z" fill="#1AB995"/>
<mask id="mask12_0_88" style="mask-type:luminance" maskUnits="userSpaceOnUse" x="178" y="111" width="35" height="37">
<path fill-rule="evenodd" clip-rule="evenodd" d="M198.614 147.095C198.614 147.095 214.365 139.584 211.782 130.813L199.667 111.395L178.679 119.9L198.614 147.095Z" fill="white"/>
</mask>
<g mask="url(#mask12_0_88)">
<path d="M193.165 119.626C188.742 133.628 196.902 139.1 198.614 147.095C200.326 155.091 174.805 138.922 174.805 138.922L176.708 125.204L193.805 116.238" fill="#0FA379"/>
<path d="M189.566 145.438C207.76 143.324 210.78 126.518 210.78 126.518L213.772 129.245L212.82 140.674" fill="white"/>
<path d="M189.566 145.438C207.76 143.324 210.78 126.518 210.78 126.518L213.772 129.245L212.82 140.674" stroke="black" stroke-width="0.625" stroke-linecap="round" stroke-linejoin="round"/>
</g>
<path fill-rule="evenodd" clip-rule="evenodd" d="M198.614 147.095C198.614 147.095 214.365 139.584 211.782 130.813L199.667 111.395L178.679 119.9L198.614 147.095Z" stroke="black" stroke-width="0.625" stroke-linecap="round" stroke-linejoin="round"/>
<path d="M77.9231 167.353C77.3065 167.009 58.1015 160.111 58.1015 160.111L51.7366 170.897L55.8024 172.603L73.6889 179.847L77.9231 167.353Z" fill="#F9C1BB"/>
<mask id="mask13_0_88" style="mask-type:luminance" maskUnits="userSpaceOnUse" x="51" y="160" width="27" height="20">
<path fill-rule="evenodd" clip-rule="evenodd" d="M77.9231 167.353C77.3065 167.009 58.1015 160.111 58.1015 160.111L51.7366 170.897L55.8024 172.603L73.6889 179.847L77.9231 167.353Z" fill="white"/>
</mask>
<g mask="url(#mask13_0_88)">
<path d="M74.8632 163.349C65.1856 162.193 70.8625 171.575 58.2499 176.031C45.6374 180.487 63.4424 179.847 63.4424 179.847L64.8298 179.129L68.6925 169.355" fill="#ED707B"/>
</g>
<path fill-rule="evenodd" clip-rule="evenodd" d="M77.9231 167.353C77.3065 167.009 58.1015 160.111 58.1015 160.111L51.7366 170.897L55.8024 172.603L73.6889 179.847L77.9231 167.353Z" stroke="black" stroke-width="0.625" stroke-linecap="round" stroke-linejoin="round"/>
<path d="M35.8082 194.012C43.9841 195.754 50.7679 173.748 56.8949 173.249C56.8949 173.249 60.2377 163.146 63.8174 161.963L58.2718 158.666C55.5658 157.057 52.1392 158.26 50.7474 161.307L35.8082 194.012Z" fill="#485065" stroke="black" stroke-width="0.625" stroke-linecap="round" stroke-linejoin="round"/>
<path d="M70.4525 164.067C67.1851 164.067 62.7878 182.401 62.7878 182.401L105.599 205.17C109.948 207.483 115.096 206.95 118.981 203.785L174.01 158.958L147.96 134.506L108.611 179.257C108.611 179.257 73.72 164.067 70.4525 164.067Z" fill="#1A80FD"/>
<mask id="mask14_0_88" style="mask-type:luminance" maskUnits="userSpaceOnUse" x="62" y="134" width="113" height="73">
<path fill-rule="evenodd" clip-rule="evenodd" d="M70.4525 164.067C67.1851 164.067 62.7878 182.401 62.7878 182.401L105.599 205.17C109.948 207.483 115.096 206.95 118.981 203.785L174.01 158.958L147.96 134.506L108.611 179.257C108.611 179.257 73.72 164.067 70.4525 164.067Z" fill="white"/>
</mask>
<g mask="url(#mask14_0_88)">
<path d="M67.9945 188.586C69.3544 180.964 73.8451 163.541 77.9231 165.311" stroke="white" stroke-width="0.625" stroke-linecap="round" stroke-linejoin="round"/>
<path d="M73.7059 171.572C73.7059 171.572 107.975 185.32 109.062 185.592C110.15 185.864 143.467 149.793 143.467 149.793" stroke="white" stroke-width="0.625" stroke-linecap="round" stroke-linejoin="round"/>
<ellipse cx="115.847" cy="209.255" rx="15.6233" ry="9.14102" fill="#FDD504" stroke="black" stroke-width="0.625" stroke-linecap="round" stroke-linejoin="round"/>
</g>
<path fill-rule="evenodd" clip-rule="evenodd" d="M70.4525 164.067C67.1851 164.067 62.7878 182.401 62.7878 182.401L105.599 205.17C109.948 207.483 115.096 206.95 118.981 203.785L174.01 158.958L147.96 134.506L108.611 179.257C108.611 179.257 73.72 164.067 70.4525 164.067Z" stroke="black" stroke-width="0.625" stroke-linecap="round" stroke-linejoin="round"/>
<path d="M259.461 197.332C259.984 197.837 277.253 209.837 277.253 209.837L286.29 201.098L282.696 198.319L266.82 186.345L259.461 197.332Z" fill="#F9C1BB"/>
<mask id="mask15_0_88" style="mask-type:luminance" maskUnits="userSpaceOnUse" x="259" y="186" width="28" height="24">
<path fill-rule="evenodd" clip-rule="evenodd" d="M259.461 197.332C259.984 197.837 277.253 209.837 277.253 209.837L286.29 201.098L282.696 198.319L266.82 186.345L259.461 197.332Z" fill="white"/>
</mask>
<g mask="url(#mask15_0_88)">
<path d="M262.24 208.334C272.416 203.787 272.875 189.051 272.875 189.051L259.461 195.055" fill="#ED707B"/>
</g>
<path fill-rule="evenodd" clip-rule="evenodd" d="M259.461 197.332C259.984 197.837 277.253 209.837 277.253 209.837L286.29 201.098L282.696 198.319L266.82 186.345L259.461 197.332Z" stroke="black" stroke-width="0.625" stroke-linecap="round" stroke-linejoin="round"/>
<path d="M307.921 183C300.266 179.054 287.971 198.592 281.778 197.389C281.778 197.389 275.907 206.296 272.062 206.461L276.718 211.196C278.99 213.506 282.688 213.28 284.839 210.7L307.921 183Z" fill="#485065" stroke="black" stroke-width="0.625" stroke-linecap="round" stroke-linejoin="round"/>
<path d="M256.692 208.334C257.596 208.578 275.945 195.31 273.164 187.828L221.605 148.834C219.624 147.327 217.326 146.291 214.885 145.805L140.655 119.956L132.316 142.187C130.983 146.309 131.202 150.888 133.134 154.722C136.248 160.902 142.254 165.094 149.147 165.238L205.365 170.727L256.692 208.334Z" fill="#1A80FD"/>
<mask id="mask16_0_88" style="mask-type:luminance" maskUnits="userSpaceOnUse" x="131" y="119" width="143" height="90">
<path fill-rule="evenodd" clip-rule="evenodd" d="M256.692 208.334C257.596 208.578 275.945 195.31 273.164 187.828L221.605 148.834C219.624 147.327 217.326 146.291 214.885 145.805L140.655 119.956L132.316 142.187C130.983 146.309 131.202 150.888 133.134 154.722C136.248 160.902 142.254 165.094 149.147 165.238L205.365 170.727L256.692 208.334Z" fill="white"/>
</mask>
<g mask="url(#mask16_0_88)">
<path d="M174.559 138.435C140.515 137.234 128.508 141.433 143.542 166.812C158.576 192.192 128.621 163.964 128.621 163.964L131.347 110.273L154.53 130.15" fill="#1D62FC"/>
<path d="M242.601 206.595C259.461 197.332 267.894 184.301 268.71 176.031" stroke="white" stroke-width="0.625" stroke-linecap="round" stroke-linejoin="round"/>
<path d="M142.872 130.997C135.121 160.529 151.49 164.146 204.661 160.111L255.689 197.317" stroke="white" stroke-width="0.625" stroke-linecap="round" stroke-linejoin="round"/>
<path d="M143.569 147.095C156.726 148.568 154.38 137.531 154.38 137.531" stroke="white" stroke-width="0.625" stroke-linecap="round" stroke-linejoin="round"/>
<ellipse cx="226.938" cy="143.647" rx="15.6233" ry="9.14102" fill="#FDD504" stroke="black" stroke-width="0.625" stroke-linecap="round" stroke-linejoin="round"/>
</g>
<path fill-rule="evenodd" clip-rule="evenodd" d="M256.692 208.334C257.596 208.578 275.945 195.31 273.164 187.828L221.605 148.834C219.624 147.327 217.326 146.291 214.885 145.805L140.655 119.956L132.316 142.187C130.983 146.309 131.202 150.888 133.134 154.722C136.248 160.902 142.254 165.094 149.147 165.238L205.365 170.727L256.692 208.334Z" stroke="black" stroke-width="0.625" stroke-linecap="round" stroke-linejoin="round"/>
<path d="M200.059 112.164C200.059 112.164 187.24 86.9915 174.516 83.5009C174.516 83.5009 159.952 98.8333 134.232 124.749C153.149 141.664 174.951 136.917 174.951 136.917C174.951 136.917 185.856 128.381 193.295 121.065" fill="#1AB995"/>
<mask id="mask17_0_88" style="mask-type:luminance" maskUnits="userSpaceOnUse" x="134" y="83" width="67" height="55">
<path fill-rule="evenodd" clip-rule="evenodd" d="M200.059 112.164C200.059 112.164 187.24 86.9915 174.516 83.5009C174.516 83.5009 159.952 98.8333 134.232 124.749C153.149 141.664 174.951 136.917 174.951 136.917C174.951 136.917 185.856 128.381 193.295 121.065" fill="white"/>
</mask>
<g mask="url(#mask17_0_88)">
<ellipse cx="186.696" cy="95.3126" rx="12.484" ry="7.53057" transform="rotate(-82.5462 186.696 95.3126)" fill="white" stroke="black" stroke-width="0.625" stroke-linecap="round" stroke-linejoin="round"/>
<ellipse cx="188.125" cy="93.5242" rx="12.484" ry="7.15149" transform="rotate(-82.5451 188.125 93.5242)" fill="#F9C1BB" stroke="black" stroke-width="0.625" stroke-linecap="round" stroke-linejoin="round"/>
<path d="M168.504 107.445C152.29 107.185 122.623 137.102 173.635 137.138C224.647 137.174 174.95 136.917 174.95 136.917L150.663 143.649L124.752 125.594L141.811 104.8L153.102 102.394L168.504 107.445Z" fill="#0FA379"/>
<path d="M174.14 101.706L164.546 115.396L188.181 120.335L174.14 101.706Z" fill="white"/>
<mask id="mask18_0_88" style="mask-type:luminance" maskUnits="userSpaceOnUse" x="164" y="101" width="25" height="20">
<path fill-rule="evenodd" clip-rule="evenodd" d="M174.14 101.706L164.546 115.396L188.181 120.335L174.14 101.706Z" fill="white"/>
</mask>
<g mask="url(#mask18_0_88)">
<rect x="175.155" y="95.1859" width="6.07215" height="27.6297" transform="rotate(35.0765 175.155 95.1859)" fill="#2F387E" stroke="black" stroke-width="0.625" stroke-linecap="round" stroke-linejoin="round"/>
</g>
<path fill-rule="evenodd" clip-rule="evenodd" d="M174.14 101.706L164.546 115.396L188.181 120.335L174.14 101.706V101.706Z" stroke="black" stroke-width="0.625" stroke-linecap="round" stroke-linejoin="round"/>
</g>
<path d="M200.059 112.164C200.059 112.164 187.24 86.9915 174.516 83.5009C174.516 83.5009 159.952 98.8333 134.232 124.749C153.149 141.664 174.951 136.917 174.951 136.917C174.951 136.917 185.856 128.381 193.295 121.065" stroke="black" stroke-width="0.625" stroke-linecap="round" stroke-linejoin="round"/>
<path d="M168.396 83.45L129.179 82.51C124.898 82.4074 121.096 85.1155 119.97 89.0704L110.068 123.838C110.068 123.838 102.196 133.934 106.684 135.618C106.684 135.618 107.408 139.874 112.165 137.597C112.165 137.597 115.785 141.755 118.577 136.707C118.577 136.707 122.325 135.272 121.908 130.753C121.761 129.36 121.243 128.032 120.41 126.907L130.752 99.8824L158.261 102.852L168.396 83.45Z" fill="#F9C1BB"/>
<mask id="mask19_0_88" style="mask-type:luminance" maskUnits="userSpaceOnUse" x="105" y="82" width="64" height="58">
<path fill-rule="evenodd" clip-rule="evenodd" d="M168.396 83.45L129.179 82.51C124.898 82.4074 121.096 85.1155 119.97 89.0704L110.068 123.838C110.068 123.838 102.196 133.934 106.684 135.618C106.684 135.618 107.408 139.874 112.165 137.597C112.165 137.597 115.785 141.755 118.577 136.707C118.577 136.707 122.325 135.272 121.908 130.753C121.761 129.36 121.243 128.032 120.41 126.907L130.752 99.8824L158.261 102.852L168.396 83.45Z" fill="white"/>
</mask>
<g mask="url(#mask19_0_88)">
<path d="M141.301 82.5659C136.49 81.1216 137.327 96.3052 133.252 100.152C129.176 103.999 140.686 106.669 140.686 106.669L143.757 93.2663" fill="#ED707B"/>
</g>
<path fill-rule="evenodd" clip-rule="evenodd" d="M168.396 83.45L129.179 82.51C124.898 82.4074 121.096 85.1155 119.97 89.0704L110.068 123.838C110.068 123.838 102.196 133.934 106.684 135.618C106.684 135.618 107.408 139.874 112.165 137.597C112.165 137.597 115.785 141.755 118.577 136.707C118.577 136.707 122.325 135.272 121.908 130.753C121.761 129.36 121.243 128.032 120.41 126.907V126.907L130.752 99.8824L158.261 102.852L168.396 83.45Z" stroke="black" stroke-width="0.625" stroke-linecap="round" stroke-linejoin="round"/>
<path d="M174.884 83.6078L139.403 82.5071C139.403 82.5071 133.226 100.802 141.305 104.913L168.396 107.204" fill="#1AB995"/>
<mask id="mask20_0_88" style="mask-type:luminance" maskUnits="userSpaceOnUse" x="137" y="82" width="38" height="26">
<path fill-rule="evenodd" clip-rule="evenodd" d="M174.884 83.6078L139.403 82.5071C139.403 82.5071 133.226 100.802 141.305 104.913L168.396 107.204" fill="white"/>
</mask>
<g mask="url(#mask20_0_88)">
<path d="M146.323 80.5107C138.056 87.614 140.891 105.46 146.735 105.372C152.578 105.284 136.849 109.095 136.849 109.095L133.676 84.5942L143.467 78.7545" fill="white"/>
<path d="M146.323 80.5107C138.056 87.614 140.891 105.46 146.735 105.372C152.578 105.284 136.849 109.095 136.849 109.095L133.676 84.5942L143.467 78.7545" stroke="black" stroke-width="0.625" stroke-linecap="round" stroke-linejoin="round"/>
</g>
<path d="M174.884 83.6078L139.403 82.5071C139.403 82.5071 133.226 100.802 141.305 104.913L168.396 107.204" stroke="black" stroke-width="0.625" stroke-linecap="round" stroke-linejoin="round"/>
<path d="M191.613 101.326L202.484 87.5379L190.401 81.9467L183.443 89.854" fill="#F9C1BB"/>
<mask id="mask21_0_88" style="mask-type:luminance" maskUnits="userSpaceOnUse" x="183" y="81" width="20" height="21">
<path fill-rule="evenodd" clip-rule="evenodd" d="M191.613 101.326L202.484 87.5379L190.401 81.9467L183.443 89.854" fill="white"/>
</mask>
<g mask="url(#mask21_0_88)">
<path d="M191.482 85.2532C194.169 90.3325 195.963 95.0606 194.728 98.1762C193.494 101.292 200.456 96.7363 200.456 96.7363L202.732 90.7036L191.482 85.2532" fill="#ED707B"/>
</g>
<path d="M191.613 101.326L202.484 87.5379L190.401 81.9467L183.443 89.854" stroke="black" stroke-width="0.625" stroke-linecap="round" stroke-linejoin="round"/>
<path d="M193.633 89.7829C197.284 90.8077 204.409 91.5693 205.863 89.515C209.153 84.8635 206.804 71.6943 202.38 68.935C203.48 77.6881 195.168 80.7329 190.774 81.7232L190.926 84.9736" fill="#F9C1BB"/>
<path d="M193.633 89.7829C197.284 90.8077 204.409 91.5693 205.863 89.515C209.153 84.8635 206.804 71.6943 202.38 68.935C203.48 77.6881 195.168 80.7329 190.774 81.7232L190.926 84.9736" stroke="black" stroke-width="0.625" stroke-linecap="round" stroke-linejoin="round"/>
<path d="M194.2 81.258C187.997 74.4872 183.518 83.4049 191.701 85.1388L194.2 81.258Z" fill="#F9C1BB"/>
<path d="M194.2 81.258C187.997 74.4872 183.518 83.4049 191.701 85.1388" stroke="black" stroke-width="0.625" stroke-linecap="round" stroke-linejoin="round"/>
<path d="M202.545 76.4871C203.055 76.3998 203.54 76.7429 203.627 77.2534L203.895 78.8176C203.982 79.3281 203.639 79.8127 203.128 79.9C202.618 79.9873 202.133 79.6442 202.046 79.1337L201.778 77.5694C201.691 77.0589 202.034 76.5743 202.545 76.4871L202.545 76.4871Z" fill="black"/>
<path d="M202.84 73.2512C200.026 73.6044 199.603 74.8692 201.376 74.7632C203.149 74.6572 204.678 73.0203 202.84 73.2512Z" fill="black"/>
<path d="M205.345 77.8568C209.119 79.4577 208.473 83.2588 205.968 82.8102L205.345 77.8568Z" fill="#F9C1BB"/>
<path d="M205.345 77.8568C209.119 79.4577 208.473 83.2588 205.968 82.8102" stroke="black" stroke-width="0.625" stroke-linecap="round" stroke-linejoin="round"/>
<ellipse opacity="0.27" cx="199.857" cy="80.9941" rx="2.13541" ry="1.57617" fill="#ED707B"/>
<path d="M201.138 83.0833C201.951 84.0319 203.216 84.4622 204.439 84.2059L201.138 83.0833Z" fill="#F9C1BB"/>
<path d="M201.138 83.0833C201.951 84.0319 203.216 84.4622 204.439 84.2059" stroke="#BA424D" stroke-width="0.625" stroke-linecap="round" stroke-linejoin="round"/>
<path d="M191.603 81.4202C191.417 81.1046 191.06 80.932 190.698 80.9833C190.336 81.0346 190.04 81.2996 189.95 81.6542C189.86 82.0088 189.993 82.3827 190.287 82.6008" stroke="black" stroke-width="0.625"/>
<path d="M192.369 67.4357C192.939 68.4978 192.615 69.9561 191.649 70.6759" stroke="black" stroke-width="0.625"/>
<path d="M154.381 121.497C154.698 123.483 155.721 125.288 157.263 126.58" stroke="black" stroke-width="0.625"/>
<path d="M201.24 125.559L200.433 128.556" stroke="black" stroke-width="0.625"/>
<path d="M205.363 170.215L206.148 166.126" stroke="black" stroke-width="0.625"/>
<path d="M108.841 179.445L109.636 181.36" stroke="black" stroke-width="0.625"/>
<path d="M169.804 149.909C167.203 151.982 164.207 153.503 160.998 154.379" stroke="black" stroke-width="0.625"/>
<path d="M56.9828 181.235C57.2921 178.514 56.2786 175.811 54.2574 173.964C52.6674 179.743 51.2852 185.575 50.1107 191.458" stroke="black" stroke-width="0.625"/>
<path d="M282.873 192.051L283.935 197.67C286.536 194.735 288.915 191.609 291.05 188.319" stroke="black" stroke-width="0.625"/>
</g>
</svg>
