<svg width="23" height="23" viewBox="0 0 23 23" fill="none" xmlns="http://www.w3.org/2000/svg">
<path d="M12.7738 21.0671L11.6728 22.1968C11.2065 22.6751 10.4526 22.6751 9.99139 22.1968L0.349612 12.3095C-0.116606 11.8312 -0.116606 11.0577 0.349612 10.5844L9.99139 0.69207C10.4576 0.213735 11.2115 0.213735 11.6728 0.69207L12.7738 1.82175C13.245 2.30518 13.2351 3.09392 12.754 3.56717L6.77747 9.40896L21.0318 9.40896C21.6915 9.40896 22.2222 9.95345 22.2222 10.6302L22.2222 12.2586C22.2222 12.9354 21.6915 13.4799 21.0318 13.4799L6.77746 13.4799L12.754 19.3217C13.24 19.7949 13.25 20.5837 12.7738 21.0671Z" fill="#121211"/>
</svg>
