<svg width="23" height="23" viewBox="0 0 23 23" fill="none" xmlns="http://www.w3.org/2000/svg">
<path d="M9.89269 1.82175L10.9938 0.692064C11.46 0.213729 12.2139 0.213729 12.6751 0.692064L22.3169 10.5794C22.7831 11.0577 22.7831 11.8312 22.3169 12.3044L12.6751 22.1968C12.2089 22.6751 11.455 22.6751 10.9938 22.1968L9.89269 21.0671C9.42151 20.5837 9.43143 19.7949 9.91253 19.3217L15.889 13.4799H1.63468C0.975031 13.4799 0.444336 12.9354 0.444336 12.2586V10.6302C0.444336 9.95344 0.975031 9.40896 1.63468 9.40896H15.889L9.91253 3.56716C9.42647 3.09392 9.41655 2.30517 9.89269 1.82175Z" fill="#121211"/>
</svg>
